<svg xmlns="http://www.w3.org/2000/svg" id="canvas" viewBox="303.759 378.966 296.458 226.255"><path d="M 310.20,399.35 C 309.28 400.09, 308.58 400.84, 308.01 403.43 C 307.45 406.02, 307.61 407.74, 307.40 412.30 C 307.18 416.86, 307.08 419.90, 306.95 426.24 C 306.83 432.58, 306.71 436.49, 306.78 444.00 C 306.84 451.52, 306.87 455.98, 307.27 463.82 C 307.66 471.67, 307.90 476.06, 308.75 483.23 C 309.59 490.41, 310.08 494.08, 311.48 499.72 C 312.88 505.36, 313.58 507.94, 315.74 511.43 C 317.91 514.91, 319.38 516.37, 322.32 517.15 C 325.25 517.93, 327.39 517.53, 330.40 515.34 C 333.42 513.15, 334.69 511.03, 337.40 506.20 C 340.10 501.36, 341.38 498.13, 343.93 491.16 C 346.48 484.19, 347.76 479.78, 350.16 471.34 C 352.55 462.89, 353.79 457.85, 355.89 448.92 C 357.99 440.00, 359.02 435.00, 360.67 426.71 C 362.32 418.43, 363.04 414.12, 364.14 407.52 C 365.23 400.93, 366.01 397.72, 366.14 393.74 C 366.27 389.77, 365.76 388.23, 364.78 387.64 C 363.79 387.05, 362.15 387.78, 361.23 390.79 C 360.31 393.79, 360.44 396.64, 360.16 402.67 C 359.88 408.71, 359.76 412.96, 359.83 420.97 C 359.90 428.97, 360.06 433.97, 360.50 442.71 C 360.94 451.46, 361.22 456.39, 362.05 464.70 C 362.88 473.00, 363.42 477.34, 364.67 484.24 C 365.92 491.15, 366.61 494.38, 368.31 499.22 C 370.01 504.06, 370.73 506.17, 373.16 508.44 C 375.59 510.71, 377.57 511.16, 380.45 510.57 C 383.33 509.98, 384.97 508.62, 387.56 505.50 C 390.15 502.37, 391.20 499.74, 393.39 494.95 C 395.58 490.17, 396.60 486.90, 398.49 481.57 C 400.39 476.24, 401.31 472.99, 402.86 468.32 C 404.42 463.65, 405.60 461.15, 406.28 458.21 C 406.97 455.27, 406.60 454.09, 406.29 453.62 C 405.98 453.16, 405.01 453.83, 404.73 455.89 C 404.45 457.96, 404.62 459.96, 404.88 463.96 C 405.14 467.95, 405.53 470.95, 406.02 475.88 C 406.51 480.80, 406.81 483.95, 407.33 488.58 C 407.86 493.21, 407.70 495.80, 408.63 499.05 C 409.57 502.30, 410.41 503.70, 412.01 504.85 C 413.61 505.99, 414.95 505.93, 416.64 504.76 C 418.33 503.59, 419.33 502.12, 420.44 498.99 C 421.56 495.87, 421.51 493.36, 422.22 489.15 C 422.93 484.94, 423.19 482.20, 423.98 477.94 C 424.78 473.68, 425.29 471.28, 426.19 467.85 C 427.10 464.41, 427.73 462.91, 428.51 460.75 C 429.29 458.59, 429.35 457.89, 430.09 457.05 C 430.83 456.22, 431.05 456.40, 432.22 456.57 C 433.38 456.75, 433.99 457.47, 435.91 457.93 C 437.83 458.39, 439.17 458.93, 441.84 458.87 C 444.51 458.82, 446.30 458.86, 449.28 457.66 C 452.25 456.45, 453.87 455.44, 456.72 452.83 C 459.58 450.22, 461.00 448.55, 463.57 444.62 C 466.14 440.69, 467.41 438.20, 469.57 433.17 C 471.73 428.15, 472.77 425.06, 474.38 419.51 C 475.99 413.95, 476.68 410.66, 477.63 405.41 C 478.59 400.17, 479.07 397.37, 479.16 393.28 C 479.25 389.20, 479.23 387.23, 478.09 384.97 C 476.94 382.71, 475.51 381.84, 473.42 381.98 C 471.34 382.12, 469.62 382.81, 467.68 385.68 C 465.75 388.55, 465.22 391.03, 463.75 396.32 C 462.29 401.62, 461.51 405.11, 460.35 412.17 C 459.19 419.22, 458.59 423.63, 457.97 431.60 C 457.35 439.57, 457.14 444.23, 457.26 452.01 C 457.38 459.79, 457.64 463.93, 458.57 470.50 C 459.51 477.06, 460.18 480.15, 461.92 484.83 C 463.67 489.52, 464.64 491.57, 467.32 493.92 C 470.00 496.27, 472.06 496.91, 475.32 496.59 C 478.58 496.28, 480.49 495.03, 483.63 492.34 C 486.77 489.65, 488.26 487.37, 491.01 483.13 C 493.77 478.90, 495.14 475.91, 497.42 471.16 C 499.71 466.41, 500.86 463.52, 502.45 459.38 C 504.03 455.24, 505.07 453.03, 505.33 450.47 C 505.59 447.92, 504.70 446.84, 503.76 446.61 C 502.82 446.39, 501.51 447.20, 500.63 449.35 C 499.74 451.49, 499.38 453.66, 499.32 457.33 C 499.26 460.99, 499.54 463.69, 500.32 467.69 C 501.10 471.69, 501.55 474.11, 503.21 477.33 C 504.87 480.55, 506.03 482.16, 508.62 483.79 C 511.22 485.41, 513.07 485.91, 516.18 485.45 C 519.29 484.99, 521.11 483.92, 524.16 481.49 C 527.20 479.07, 528.63 477.01, 531.40 473.34 C 534.17 469.66, 535.58 467.08, 537.99 463.10 C 540.41 459.13, 541.96 456.63, 543.46 453.45 C 544.97 450.27, 545.34 448.50, 545.53 447.19 C 545.71 445.87, 544.66 445.52, 544.40 446.89 C 544.14 448.25, 544.07 449.79, 544.22 453.99 C 544.36 458.19, 544.73 461.35, 545.13 467.88 C 545.54 474.41, 545.82 478.53, 546.25 486.63 C 546.68 494.74, 546.99 499.44, 547.27 508.41 C 547.55 517.37, 547.76 522.40, 547.64 531.47 C 547.52 540.54, 547.46 545.42, 546.69 553.76 C 545.92 562.09, 545.41 566.36, 543.81 573.15 C 542.21 579.94, 541.10 583.14, 538.70 587.71 C 536.31 592.29, 534.70 593.94, 531.82 596.04 C 528.95 598.13, 527.40 598.37, 524.34 598.20 C 521.28 598.03, 519.54 597.29, 516.52 595.18 C 513.50 593.06, 511.67 591.25, 509.23 587.62 C 506.79 584.00, 505.50 581.57, 504.31 577.06 C 503.12 572.55, 502.78 569.94, 503.27 565.06 C 503.76 560.18, 504.47 557.59, 506.76 552.66 C 509.05 547.73, 510.79 545.19, 514.74 540.42 C 518.68 535.64, 521.29 533.23, 526.50 528.79 C 531.71 524.35, 534.88 522.14, 540.79 518.20 C 546.69 514.27, 550.08 512.39, 556.03 509.13 C 561.98 505.86, 565.19 504.39, 570.53 501.89 C 575.88 499.39, 578.52 498.31, 582.75 496.64 C 586.98 494.97, 589.05 494.68, 591.69 493.55 C 594.34 492.42, 594.88 491.89, 595.98 490.99 C 597.08 490.08, 597.02 489.60, 597.18 489.01 C 597.34 488.42, 596.95 488.19, 596.78 488.04 C 596.60 487.89, 596.42 488.29, 596.32 488.27 C 596.21 488.25, 596.61 488.07, 596.24 487.95 C 595.87 487.83, 595.76 487.49, 594.46 487.68 C 593.16 487.87, 592.38 487.80, 589.73 488.92 C 587.09 490.03, 585.35 491.20, 581.24 493.24 C 577.13 495.29, 574.50 496.44, 569.19 499.13 C 563.88 501.82, 560.66 503.32, 554.67 506.68 C 548.69 510.04, 545.27 511.93, 539.27 515.92 C 533.27 519.91, 530.04 522.11, 524.67 526.62 C 519.30 531.13, 516.59 533.54, 512.41 538.47 C 508.24 543.40, 506.34 546.01, 503.80 551.25 C 501.27 556.49, 500.40 559.32, 499.75 564.67 C 499.10 570.02, 499.35 572.95, 500.55 578.00 C 501.75 583.05, 503.03 585.80, 505.74 589.94 C 508.45 594.08, 510.41 596.26, 514.11 598.72 C 517.81 601.17, 520.26 602.20, 524.23 602.22 C 528.19 602.24, 530.51 601.47, 533.93 598.83 C 537.35 596.20, 538.86 594.06, 541.32 589.04 C 543.78 584.01, 544.71 580.71, 546.23 573.70 C 547.75 566.68, 548.20 562.39, 548.92 553.95 C 549.63 545.51, 549.68 540.62, 549.81 531.50 C 549.94 522.38, 549.74 517.34, 549.57 508.35 C 549.40 499.36, 549.12 494.65, 548.95 486.54 C 548.78 478.42, 548.75 474.32, 548.74 467.77 C 548.74 461.22, 549.18 458.13, 548.93 453.77 C 548.69 449.41, 548.67 447.71, 547.51 445.98 C 546.34 444.24, 544.89 444.13, 543.11 445.10 C 541.33 446.08, 540.45 447.74, 538.60 450.85 C 536.74 453.96, 536.06 456.76, 533.83 460.65 C 531.61 464.55, 530.10 467.00, 527.48 470.33 C 524.87 473.65, 523.23 475.28, 520.77 477.29 C 518.32 479.29, 517.08 479.86, 515.21 480.34 C 513.34 480.82, 512.78 480.78, 511.43 479.70 C 510.08 478.61, 509.47 477.53, 508.48 474.92 C 507.48 472.32, 506.91 470.21, 506.46 466.68 C 506.00 463.16, 506.32 460.66, 506.22 457.28 C 506.11 453.91, 506.46 451.98, 505.94 449.81 C 505.43 447.65, 504.74 446.60, 503.66 446.46 C 502.58 446.32, 501.67 446.84, 500.56 449.11 C 499.44 451.38, 499.48 453.75, 498.09 457.80 C 496.70 461.85, 495.76 464.77, 493.60 469.34 C 491.44 473.92, 489.93 476.79, 487.31 480.68 C 484.69 484.58, 483.03 486.51, 480.52 488.81 C 478.00 491.11, 476.83 491.76, 474.72 492.18 C 472.61 492.60, 471.92 492.61, 469.98 490.90 C 468.03 489.19, 466.74 487.78, 465.01 483.62 C 463.28 479.46, 462.37 476.41, 461.34 470.08 C 460.31 463.75, 460.00 459.62, 459.86 451.97 C 459.73 444.32, 459.94 439.67, 460.67 431.83 C 461.40 423.99, 462.08 419.60, 463.50 412.75 C 464.92 405.90, 465.99 402.47, 467.75 397.59 C 469.51 392.71, 471.03 390.97, 472.29 388.36 C 473.55 385.76, 473.64 385.01, 474.03 384.58 C 474.42 384.15, 474.10 384.48, 474.24 386.21 C 474.37 387.93, 474.76 389.48, 474.69 393.19 C 474.62 396.91, 474.65 399.73, 473.89 404.79 C 473.13 409.84, 472.45 413.12, 470.87 418.48 C 469.30 423.84, 468.20 426.86, 466.00 431.57 C 463.80 436.29, 462.42 438.63, 459.87 442.04 C 457.32 445.45, 455.84 446.78, 453.27 448.63 C 450.71 450.48, 449.36 450.65, 447.05 451.29 C 444.74 451.93, 443.79 451.80, 441.71 451.83 C 439.64 451.87, 438.68 451.46, 436.68 451.45 C 434.69 451.45, 433.62 451.30, 431.72 451.79 C 429.83 452.28, 428.84 452.54, 427.19 453.91 C 425.54 455.28, 424.67 456.09, 423.47 458.62 C 422.26 461.15, 422.06 462.92, 421.18 466.58 C 420.29 470.24, 419.95 472.66, 419.02 476.94 C 418.10 481.22, 417.52 483.92, 416.54 487.99 C 415.55 492.06, 414.65 494.30, 414.11 497.26 C 413.56 500.22, 413.76 501.62, 413.82 502.78 C 413.87 503.95, 414.36 504.06, 414.38 503.07 C 414.39 502.09, 414.35 500.88, 413.88 497.87 C 413.40 494.86, 412.56 492.50, 411.99 488.02 C 411.42 483.54, 411.30 480.38, 411.01 475.48 C 410.72 470.59, 410.88 467.61, 410.55 463.54 C 410.21 459.47, 410.32 457.36, 409.31 455.12 C 408.31 452.89, 407.06 452.07, 405.52 452.37 C 403.97 452.66, 402.91 453.66, 401.58 456.61 C 400.26 459.55, 400.25 462.36, 398.88 467.08 C 397.51 471.80, 396.63 475.02, 394.74 480.22 C 392.85 485.42, 391.62 488.61, 389.43 493.08 C 387.25 497.55, 385.80 499.81, 383.80 502.57 C 381.81 505.33, 381.02 506.27, 379.46 506.88 C 377.89 507.48, 377.61 507.36, 375.98 505.60 C 374.35 503.84, 373.05 502.47, 371.30 498.10 C 369.55 493.73, 368.61 490.48, 367.23 483.75 C 365.86 477.02, 365.27 472.69, 364.42 464.46 C 363.56 456.23, 363.29 451.30, 362.97 442.60 C 362.64 433.91, 362.62 428.92, 362.81 420.99 C 363.00 413.05, 363.39 408.84, 363.93 402.93 C 364.47 397.02, 365.49 394.45, 365.51 391.46 C 365.53 388.46, 364.60 387.55, 364.03 387.95 C 363.45 388.35, 363.14 389.62, 362.63 393.45 C 362.11 397.29, 362.30 400.56, 361.45 407.13 C 360.61 413.69, 359.96 418.02, 358.40 426.28 C 356.85 434.53, 355.82 439.53, 353.69 448.40 C 351.57 457.28, 350.30 462.31, 347.79 470.65 C 345.28 478.98, 343.87 483.35, 341.14 490.08 C 338.42 496.82, 336.85 499.94, 334.16 504.30 C 331.48 508.66, 329.89 510.05, 327.72 511.89 C 325.55 513.73, 325.06 514.00, 323.30 513.52 C 321.54 513.03, 320.69 512.39, 318.92 509.47 C 317.15 506.56, 315.95 504.25, 314.45 498.93 C 312.95 493.62, 312.33 489.95, 311.42 482.91 C 310.51 475.86, 310.25 471.47, 309.90 463.70 C 309.55 455.92, 309.55 451.47, 309.67 444.02 C 309.80 436.56, 310.04 432.67, 310.52 426.41 C 311.00 420.15, 311.49 417.17, 312.08 412.72 C 312.67 408.26, 313.37 406.73, 313.47 404.13 C 313.58 401.54, 313.26 400.69, 312.61 399.73 C 311.95 398.77, 311.12 398.61, 310.20 399.35" style="stroke: black; fill: black; --darkreader-inline-stroke: var(--darkreader-text-000000, #e8e6e3); --darkreader-inline-fill: var(--darkreader-text-000000, #e8e6e3);" data-darkreader-inline-stroke="" data-darkreader-inline-fill=""/></svg>